<svg width="728" height="755" viewBox="0 0 728 755" fill="none" xmlns="http://www.w3.org/2000/svg">
<path d="M165.277 263.942L137.683 282.041L425.063 720.206L452.657 702.107L165.277 263.942Z" fill="#E6E6E6"/>
<path d="M99.5823 99.0486L163.427 196.391C164.663 198.276 165.1 200.575 164.641 202.782C164.183 204.99 162.866 206.924 160.981 208.161C159.096 209.397 156.797 209.834 154.59 209.375C152.382 208.916 150.448 207.6 149.211 205.715L75.8146 93.8075C65.8521 92.9755 55.8384 94.6201 46.6652 98.5948L126.634 220.522C127.87 222.407 128.306 224.706 127.847 226.913C127.388 229.119 126.072 231.053 124.187 232.29C122.302 233.526 120.004 233.963 117.797 233.504C115.59 233.046 113.656 231.73 112.419 229.846L32.4499 107.918C25.1494 114.748 19.6513 123.277 16.4449 132.746L89.8418 244.654C91.0773 246.539 91.5135 248.837 91.0546 251.044C90.5956 253.251 89.2791 255.185 87.3944 256.421C85.5097 257.657 83.2112 258.094 81.0044 257.636C78.7976 257.177 76.8631 255.861 75.6265 253.977L11.7821 156.634C10.1423 183.776 18.9915 215.946 38.3854 245.515C74.4296 300.471 133.225 325.624 169.708 301.696C206.192 277.767 206.548 213.819 170.504 158.862C151.11 129.293 125.13 108.359 99.5823 99.0486Z" fill="#E6E6E6"/>
<path d="M289 204H256V728H289V204Z" fill="#E6E6E6"/>
<path d="M272 238C315.63 238 351 184.722 351 119C351 53.2781 315.63 0 272 0C228.37 0 193 53.2781 193 119C193 184.722 228.37 238 272 238Z" fill="#E6E6E6"/>
<path d="M272 216.911C307.899 216.911 337 173.075 337 119C337 64.9248 307.899 21.0884 272 21.0884C236.101 21.0884 207 64.9248 207 119C207 173.075 236.101 216.911 272 216.911Z" fill="#CCCCCC"/>
<path d="M364 754.885C565.032 754.885 728 745.535 728 734C728 722.465 565.032 713.115 364 713.115C162.968 713.115 0 722.465 0 734C0 745.535 162.968 754.885 364 754.885Z" fill="#E6E6E6"/>
<path d="M579.268 733.693C442.855 709.105 303.145 709.105 166.732 733.693C164.565 734.086 162.339 733.998 160.209 733.436C158.08 732.874 156.1 731.852 154.409 730.441C152.718 729.031 151.357 727.266 150.422 725.272C149.488 723.278 149.002 721.103 149 718.901V532H597V718.901C596.998 721.103 596.512 723.278 595.578 725.272C594.643 727.266 593.282 729.031 591.591 730.441C589.9 731.852 587.92 732.874 585.791 733.436C583.661 733.998 581.435 734.086 579.268 733.693V733.693Z" fill="#F4A261"/>
<path d="M556 394C545.655 393.991 535.382 395.71 525.605 399.086C511.343 368.154 488.554 341.931 459.913 323.494C431.272 305.058 397.966 295.174 363.904 295.002C329.843 294.83 296.439 304.377 267.612 322.523C238.786 340.669 215.734 366.66 201.16 397.447C186.81 393.421 171.703 392.904 157.111 395.937C142.519 398.97 128.869 405.466 117.313 414.877C105.756 424.288 96.6298 436.339 90.7036 450.014C84.7774 463.689 82.2245 478.588 83.2599 493.456C84.2953 508.325 88.8888 522.726 96.6533 535.448C104.418 548.169 115.126 558.839 127.876 566.557C140.626 574.275 155.044 578.817 169.915 579.798C184.787 580.78 199.677 578.173 213.33 572.197C229.741 597.203 252.155 617.7 278.526 631.814C304.897 645.928 334.384 653.21 364.294 652.995C394.203 652.78 423.582 645.074 449.747 630.582C475.912 616.09 498.029 595.273 514.078 570.033C526.617 576.363 540.426 579.771 554.47 580.001C568.513 580.231 582.427 577.277 595.166 571.361C607.905 565.446 619.139 556.721 628.024 545.844C636.909 534.966 643.216 522.217 646.47 508.553C649.723 494.89 649.841 480.667 646.812 466.951C643.783 453.236 637.687 440.385 628.982 429.363C620.277 418.34 609.188 409.432 596.548 403.308C583.908 397.183 570.045 394.001 556 394V394Z" fill="#F4A261"/>
<path d="M185 474H183C182.931 447.373 188.824 421.068 200.247 397.015L202.054 397.871C190.759 421.657 184.932 447.669 185 474V474Z" fill="#264653"/>
<path d="M543 474H541C541.062 448.276 535.501 422.849 524.706 399.499L526.522 398.661C537.439 422.274 543.063 447.986 543 474V474Z" fill="#264653"/>
<path d="M149.241 618.971L148.759 617.029C149.323 616.89 206.162 602.93 289.459 596.003C366.34 589.61 482.146 588.068 597.244 617.03L596.756 618.97C481.939 590.08 366.387 591.615 289.667 597.993C206.519 604.904 149.804 618.831 149.241 618.971Z" fill="#264653"/>
<path d="M149.241 645.971L148.759 644.029C149.323 643.89 206.162 629.93 289.459 623.003C366.34 616.61 482.146 615.068 597.244 644.03L596.756 645.97C481.939 617.08 366.387 618.617 289.667 624.993C206.519 631.904 149.804 645.831 149.241 645.971Z" fill="#264653"/>
<path d="M149.241 672.971L148.759 671.029C149.323 670.89 206.162 656.93 289.459 650.003C366.34 643.61 482.146 642.068 597.244 671.03L596.756 672.97C481.939 644.08 366.387 645.617 289.667 651.993C206.519 658.904 149.804 672.831 149.241 672.971Z" fill="#264653"/>
<path d="M517.267 526.156L493.037 517.917L516.298 399.189L500.306 397.735C484.712 409.699 463.946 414.39 437.307 410.819L479.952 475.272L458.207 490.622L388.839 407.416C385.712 403.666 384 398.938 384 394.055C384 389.528 385.472 385.124 388.194 381.507C390.916 377.89 394.741 375.257 399.091 374.004L473.168 352.667L559.912 362.359C573.027 382.353 573.54 396.258 553.576 400.27L517.267 526.156Z" fill="#264653"/>
<path d="M492.467 572.344C489.963 572.185 487.531 571.438 485.369 570.163C483.207 568.889 481.376 567.122 480.025 565.007C478.675 562.891 477.842 560.487 477.594 557.99C477.347 555.493 477.692 552.972 478.602 550.633L490.648 519.657C496.766 508.066 505.164 509.517 515.08 519.657L519.926 533.873C520.325 535.043 520.484 536.282 520.392 537.515C520.3 538.748 519.96 539.95 519.392 541.049L507.65 563.749C506.227 566.501 504.033 568.779 501.337 570.305C498.641 571.831 495.559 572.54 492.467 572.344V572.344Z" fill="#264653"/>
<path d="M461.152 531.781C458.647 531.623 456.215 530.875 454.053 529.601C451.891 528.326 450.061 526.559 448.71 524.444C447.359 522.329 446.526 519.925 446.279 517.427C446.032 514.93 446.377 512.409 447.286 510.07L459.332 479.095C465.451 467.503 473.849 468.954 483.765 479.095L488.611 493.31C489.01 494.48 489.168 495.719 489.076 496.952C488.985 498.186 488.644 499.387 488.076 500.486L476.335 523.186C474.911 525.938 472.718 528.216 470.022 529.742C467.326 531.268 464.244 531.977 461.152 531.781Z" fill="#264653"/>
<path d="M476.56 239.269C491.548 239.269 503.698 227.119 503.698 212.131C503.698 197.143 491.548 184.993 476.56 184.993C461.572 184.993 449.422 197.143 449.422 212.131C449.422 227.119 461.572 239.269 476.56 239.269Z" fill="#FFB9B9"/>
<path d="M518.721 250.415L481.406 269.799L473.652 234.907L499.336 218.915L518.721 250.415Z" fill="#FFB9B9"/>
<path d="M563.789 367.205C526.555 355.959 492.771 350.132 468.321 358.967C476.749 335.258 461.194 299.055 444.091 262.045C451.47 252.398 463.237 248.662 476.56 247.022C491.136 257.607 501.301 250.813 509.028 234.423C525.882 233.746 542.123 239.714 557.974 249.93C545.583 289.616 547.814 328.696 563.789 367.205Z" fill="#2A9D8F"/>
<path d="M467.837 364.782C461.958 368.248 456.531 374.085 451.361 381.259C442.622 375.91 434.932 369.82 428.875 362.576C424.634 357.44 421.743 351.327 420.463 344.791C419.183 338.255 419.554 331.503 421.544 325.147L438.105 271.325C439.48 266.855 442.152 262.894 445.782 259.944L447.968 258.168L469.776 299.36L447.968 340.067C450.734 347.482 458.883 356.046 467.837 364.782Z" fill="#2A9D8F"/>
<path d="M475.343 405.817C473.366 406.719 471.206 407.148 469.035 407.07C466.864 406.993 464.74 406.411 462.832 405.371C460.924 404.331 459.284 402.862 458.042 401.079C456.801 399.296 455.991 397.249 455.677 395.099L452.072 370.424L464.672 363.64L480.663 384.573C481.94 386.245 482.824 388.184 483.25 390.244C483.675 392.305 483.63 394.435 483.119 396.476C482.608 398.517 481.643 400.417 480.297 402.034C478.951 403.652 477.258 404.945 475.343 405.817V405.817Z" fill="#FFB9B9"/>
<path d="M503.94 210.943L499.306 211.081L486.453 192.874C469.984 194.576 456.488 201.732 445.068 212.692L443.91 204.972C442.806 197.61 444.565 190.106 448.825 184.001C453.085 177.896 459.522 173.656 466.813 172.153H466.813C470.642 171.364 474.592 171.354 478.425 172.124C482.258 172.895 485.897 174.43 489.124 176.638C492.351 178.847 495.1 181.682 497.206 184.976C499.313 188.27 500.734 191.955 501.385 195.811L503.94 210.943Z" fill="#2F2E41"/>
<path d="M451.828 381.268C450.927 379.291 450.498 377.132 450.575 374.96C450.653 372.789 451.234 370.665 452.274 368.757C453.314 366.849 454.783 365.21 456.566 363.968C458.349 362.726 460.397 361.916 462.547 361.602L487.221 357.998L494.006 370.597L473.072 386.588C471.4 387.865 469.462 388.75 467.401 389.175C465.34 389.6 463.21 389.555 461.169 389.044C459.128 388.533 457.228 387.569 455.611 386.223C453.994 384.876 452.701 383.183 451.828 381.268V381.268Z" fill="#FFB9B9"/>
<path d="M568.49 358.824C545.015 360.647 519.384 367.967 492.552 378.351C492.219 370.386 489.33 362.739 484.313 356.543C508.684 350.125 530.798 342.592 544.405 330.859L536.166 268.83L554.097 248.476L557.19 250.09C559.758 251.424 562.018 253.284 563.821 255.548C565.625 257.813 566.932 260.431 567.659 263.233C575.229 292.682 578.592 320.898 576.281 347.451C576.579 349.968 575.954 352.509 574.521 354.6C573.088 356.692 570.945 358.192 568.49 358.824V358.824Z" fill="#2A9D8F"/>
<path d="M95.886 728.112C74.0536 741.767 52.2213 741.761 30.3888 728.095C29.6977 727.669 29.1364 727.062 28.7659 726.34C28.3954 725.618 28.23 724.808 28.2875 723.998L35.0999 635.437H90.2004L97.9833 723.967C98.0505 724.784 97.8901 725.604 97.5199 726.336C97.1497 727.067 96.5842 727.682 95.886 728.112V728.112Z" fill="#264653"/>
<path d="M62.3962 646.457C77.7521 646.457 90.2006 641.972 90.2006 636.439C90.2006 630.906 77.7521 626.42 62.3962 626.42C47.0402 626.42 34.5918 630.906 34.5918 636.439C34.5918 641.972 47.0402 646.457 62.3962 646.457Z" fill="#3F3D56"/>
<path d="M84.1891 633.057C69.7007 643.249 55.6751 643.249 42.1123 633.057V617.028H84.1891V633.057Z" fill="#E76F51"/>
<path d="M63.1507 625.042C74.7698 625.042 84.189 621.454 84.189 617.028C84.189 612.601 74.7698 609.013 63.1507 609.013C51.5315 609.013 42.1123 612.601 42.1123 617.028C42.1123 621.454 51.5315 625.042 63.1507 625.042Z" fill="#E76F51"/>
<path d="M64.1531 617.028C65.2597 617.028 66.1567 616.579 66.1567 616.026C66.1567 615.473 65.2597 615.024 64.1531 615.024C63.0465 615.024 62.1494 615.473 62.1494 616.026C62.1494 616.579 63.0465 617.028 64.1531 617.028Z" fill="#E6E6E6"/>
<path d="M73.614 617.028C74.7206 617.028 75.6177 616.579 75.6177 616.026C75.6177 615.473 74.7206 615.024 73.614 615.024C72.5074 615.024 71.6104 615.473 71.6104 616.026C71.6104 616.579 72.5074 617.028 73.614 617.028Z" fill="#E6E6E6"/>
<path d="M68.8835 619.393C69.9901 619.393 70.8872 618.945 70.8872 618.391C70.8872 617.838 69.9901 617.389 68.8835 617.389C67.777 617.389 66.8799 617.838 66.8799 618.391C66.8799 618.945 67.777 619.393 68.8835 619.393Z" fill="#E6E6E6"/>
<path d="M49.9617 619.393C51.0682 619.393 51.9653 618.945 51.9653 618.391C51.9653 617.838 51.0682 617.389 49.9617 617.389C48.8551 617.389 47.958 617.838 47.958 618.391C47.958 618.945 48.8551 619.393 49.9617 619.393Z" fill="#E6E6E6"/>
<path d="M54.6921 617.028C55.7987 617.028 56.6958 616.579 56.6958 616.026C56.6958 615.473 55.7987 615.024 54.6921 615.024C53.5855 615.024 52.6885 615.473 52.6885 616.026C52.6885 616.579 53.5855 617.028 54.6921 617.028Z" fill="#E6E6E6"/>
<path d="M59.4226 620.576C60.5292 620.576 61.4262 620.127 61.4262 619.574C61.4262 619.021 60.5292 618.572 59.4226 618.572C58.316 618.572 57.4189 619.021 57.4189 619.574C57.4189 620.127 58.316 620.576 59.4226 620.576Z" fill="#E6E6E6"/>
<path d="M700.886 728.112C679.054 741.767 657.221 741.761 635.389 728.095C634.698 727.669 634.136 727.062 633.766 726.34C633.395 725.618 633.23 724.808 633.288 723.998L640.1 635.437H695.2L702.983 723.967C703.051 724.784 702.89 725.604 702.52 726.336C702.15 727.067 701.584 727.682 700.886 728.112V728.112Z" fill="#264653"/>
<path d="M667.396 646.457C682.752 646.457 695.201 641.972 695.201 636.439C695.201 630.906 682.752 626.42 667.396 626.42C652.04 626.42 639.592 630.906 639.592 636.439C639.592 641.972 652.04 646.457 667.396 646.457Z" fill="#3F3D56"/>
<path d="M689.189 633.057C674.701 643.249 660.675 643.249 647.112 633.057V617.028H689.189V633.057Z" fill="#E76F51"/>
<path d="M668.151 625.042C679.77 625.042 689.189 621.454 689.189 617.028C689.189 612.601 679.77 609.013 668.151 609.013C656.532 609.013 647.112 612.601 647.112 617.028C647.112 621.454 656.532 625.042 668.151 625.042Z" fill="#E76F51"/>
<path d="M669.153 617.028C670.26 617.028 671.157 616.579 671.157 616.026C671.157 615.473 670.26 615.024 669.153 615.024C668.046 615.024 667.149 615.473 667.149 616.026C667.149 616.579 668.046 617.028 669.153 617.028Z" fill="#E6E6E6"/>
<path d="M678.614 617.028C679.721 617.028 680.618 616.579 680.618 616.026C680.618 615.473 679.721 615.024 678.614 615.024C677.507 615.024 676.61 615.473 676.61 616.026C676.61 616.579 677.507 617.028 678.614 617.028Z" fill="#E6E6E6"/>
<path d="M673.884 619.393C674.99 619.393 675.887 618.945 675.887 618.391C675.887 617.838 674.99 617.389 673.884 617.389C672.777 617.389 671.88 617.838 671.88 618.391C671.88 618.945 672.777 619.393 673.884 619.393Z" fill="#E6E6E6"/>
<path d="M654.962 619.393C656.068 619.393 656.965 618.945 656.965 618.391C656.965 617.838 656.068 617.389 654.962 617.389C653.855 617.389 652.958 617.838 652.958 618.391C652.958 618.945 653.855 619.393 654.962 619.393Z" fill="#E6E6E6"/>
<path d="M659.692 617.028C660.799 617.028 661.696 616.579 661.696 616.026C661.696 615.473 660.799 615.024 659.692 615.024C658.586 615.024 657.688 615.473 657.688 616.026C657.688 616.579 658.586 617.028 659.692 617.028Z" fill="#E6E6E6"/>
<path d="M664.423 620.576C665.529 620.576 666.426 620.127 666.426 619.574C666.426 619.021 665.529 618.572 664.423 618.572C663.316 618.572 662.419 619.021 662.419 619.574C662.419 620.127 663.316 620.576 664.423 620.576Z" fill="#E6E6E6"/>
</svg>
